<svg xmlns="http://www.w3.org/2000/svg" version="1.1" xmlns:xlink="http://www.w3.org/1999/xlink" width="512" height="512" x="0" y="0" viewBox="0 0 512 512" style="enable-background:new 0 0 512 512" xml:space="preserve" class=""><g><path fill="#ffffff" d="m473.156 246.618-21.561-91.471a38.279 38.279 0 0 0-17.293-23.762l-46.783-28.324a46.61 46.61 0 0 0-32.663-5.948l-25.58 4.75L303.6 54.786l-50.709 25.642-12.017-25.966a33.886 33.886 0 0 0-41.24-17.954L72.548 78.088a33.6 33.6 0 0 0-6.475 2.925c-4.713 1.925-10.67 6.178-14.961 15.543-5.654 12.34-6.45 29.958-1.85 40.982l3.224 7.73-16.65 9.83-.963-2.413L6 165.271l88.433 226.35 31.903-9.707-1.555-3.897 11.167-3.672 9.486-6.31 22.503 53.93a33.824 33.824 0 0 0 45.906 17.47l130.281-62.66c16.383-7.88 27.245-37.408 20.327-54.42-1.252-4.243-.817-2.35-22.294-49.042l33.28-14.537a61.64 61.64 0 0 0 7.062 5.618l1.684 192.455a20.52 20.52 0 0 0 20.438 20.324c78.118 0 101.278-58.195 101.379-58.268z" opacity="1" data-original="#ffffff" class=""></path><path fill="#ffad92" d="M492.662 417.003c-20.155 39.522-68.391 46.298-87.586 47.413a7.724 7.724 0 0 1-8.148-7.668l-1.75-199.771-17.72-72.029.995-18.045a14.249 14.249 0 0 0-6.26-12.591l-22.918-15.473-50.5-2.813a7.734 7.734 0 0 1-7.325-7.72 4.177 4.177 0 0 1 .017-.462 7.74 7.74 0 0 1 6.313-7.17l59.403-11.03a33.87 33.87 0 0 1 23.74 4.322l46.779 28.321a25.296 25.296 0 0 1 11.493 15.798l21.493 91.19z" opacity="1" data-original="#ffad92"></path><path fill="#1d1d3d" d="M71.566 92.564 201.02 62.87a21.102 21.102 0 0 1 25.713 11.193L352.448 326.7c4.844 10.466-3.455 33.591-13.847 38.59l-130.282 62.66a21.102 21.102 0 0 1-28.62-10.891L61.022 132.63c-4.741-11.362-1.158-36.238 10.543-40.066z" opacity="1" data-original="#1d1d3d" class=""></path><path fill="#10b981" d="m76.513 90.2 127.084-41.579a21.102 21.102 0 0 1 25.712 11.193l121.873 263.348a21.102 21.102 0 0 1-10.004 27.879L210.896 413.7a21.102 21.102 0 0 1-28.62-10.891L63.6 118.38a21.102 21.102 0 0 1 12.913-28.18z" opacity="1" data-original="#00abfe" class=""></path><path fill="#ffffff" d="m335.981 340.223-130.282 62.663a9.103 9.103 0 0 1-12.334-4.7L74.679 113.76a9.079 9.079 0 0 1 5.575-12.144l22.351-7.308 2.127 2.419a16.703 16.703 0 0 0 17.445 4.974l56.745-17.325c13.844-4.228 11.605-18.752 11.63-18.852l16.776-5.489a9.076 9.076 0 0 1 11.082 4.82L340.287 328.2a9.147 9.147 0 0 1-4.306 12.024z" opacity="1" data-original="#ffffff" class=""></path><path fill="#b2aca3" d="M239.305 371.866a2.5 2.5 0 0 1 1.202-3.324l47.18-22.108a2.5 2.5 0 0 1 2.12 4.527L242.63 373.07a2.5 2.5 0 0 1-3.324-1.203z" opacity="1" data-original="#b2aca3" class=""></path><path fill="#059669" d="m204.856 331.976 83.738-35.416a16.075 16.075 0 0 1 21.24 8.97 16.075 16.075 0 0 1-8.565 20.574l-83.377 36.28a16.075 16.075 0 0 1-21.241-8.533l-.362-.863a16.075 16.075 0 0 1 8.567-21.012z" opacity="1" data-original="#7ad001" class=""></path><path fill="#059669" d="m207.543 117.64 90.783-45.906 91.102 167.023-97.978 42.799z" opacity="1" data-original="#8b57dd" class=""></path><path fill="#064e3b" d="m298.326 71.734-22.49 11.372 85.089 168.102 28.503-12.451z" opacity="1" data-original="#a369f7" class=""></path><path fill="#ffad92" d="M395.178 256.977c-25.97-11.837-39.608-57.225-39.608-57.225s-6.055-7.72-24.53-14.855c-10.154-3.928-12.007-10.721-11.613-16.022a6.923 6.923 0 0 1 8.56-6.14l19.367 4.63 30.104 17.583 25.013 28.333z" opacity="1" data-original="#ffad92"></path><path fill="#f28916" d="m142.415 137.262 80.707-33.628 80.707 179.145-96.277 43.411z" opacity="1" data-original="#f28916" class=""></path><path fill="#ffb020" d="m223.122 103.634 80.707 179.145-41.158 18.558-80.098-180.808z" opacity="1" data-original="#ffb020" class=""></path><path fill="#064e3b" d="m202.945 134.205 20.177-7.949 33.628 76.229-18.954 9.981z" opacity="1" data-original="#a369f7" class=""></path><path fill="#eae5db" d="m108.338 193.908 14.549-63.161 27.583-7.103 84.669 193.634-22.94 11.587-43.133 8.139z" opacity="1" data-original="#eae5db" class=""></path><path fill="#ffffff" d="m208.918 320.957-80.575-180.015a2.5 2.5 0 1 1 4.563-2.043l80.575 180.015a2.5 2.5 0 1 1-4.563 2.043z" opacity="1" data-original="#ffffff" class=""></path><path fill="#10b981" d="m148.038 119.864 5.663-2.224 87.867 200.549-6.778 3.615z" opacity="1" data-original="#ff605b" class=""></path><path fill="#eae5db" d="M108.338 193.908 53.39 159.534l-24.527 14.481 77.049 196.79 24.415-8.027 38.739-25.774z" opacity="1" data-original="#eae5db" class=""></path><path fill="#ffffff" d="M122.384 356.648 52.069 172.383a2.5 2.5 0 1 1 4.672-1.782l70.315 184.265a2.5 2.5 0 1 1-4.672 1.782z" opacity="1" data-original="#ffffff" class=""></path><path fill="#10b981" d="m27.91 169.623-5.577 2.431 79.677 203.941 7.35-2.236z" opacity="1" data-original="#ff605b" class=""></path><path fill="#b2aca3" d="m166.765 337.981-60.728-143.097a2.5 2.5 0 0 1 4.603-1.953l60.727 143.097a2.5 2.5 0 0 1-4.602 1.953z" opacity="1" data-original="#b2aca3" class=""></path></g></svg>