<svg xmlns="http://www.w3.org/2000/svg" version="1.1" xmlns:xlink="http://www.w3.org/1999/xlink" width="512" height="512" x="0" y="0" viewBox="0 0 60 60" style="enable-background:new 0 0 512 512" xml:space="preserve" class=""><g><path fill="#fdd1c3" d="M3.464 59.391a.5.5 0 0 1-.372-.835l1.392-1.543-2.046 1.18a.5.5 0 0 1-.639-.746L3.14 55.78l-.86.5a.5.5 0 0 1-.732-.566l.262-.942a.5.5 0 0 1-.03-.882l.505-.292a.5.5 0 0 1 .732.566l-.178.639 2.116-1.221a.5.5 0 0 1 .639.746l-1.341 1.663 2.475-1.428a.5.5 0 0 1 .621.768l-1.393 1.544.786-.453a.5.5 0 1 1 .5.865l-3.529 2.036a.489.489 0 0 1-.249.068z" opacity="1" data-original="#fdd1c3"></path><path fill="#335066" d="M13.118 59.47a.5.5 0 0 1-.327-.879l1.728-1.491-3.99 2.3a.5.5 0 0 1-.593-.8l2.139-2.023L7.2 59.4a.5.5 0 0 1-.557-.827l.641-.5-.981.567a.5.5 0 0 1-.564-.822l.359-.29a.511.511 0 0 1-.414-.13.5.5 0 0 1-.106-.586l.791-1.6a.474.474 0 0 1-.474-.248.5.5 0 0 1 .184-.683l1.184-.681a.5.5 0 0 1 .7.654l-.754 1.516 3.769-2.17a.5.5 0 0 1 .564.821l-.176.143 1.673-.966a.5.5 0 0 1 .557.827l-.643.5 2.3-1.33a.5.5 0 0 1 .594.8l-2.141 2.024 4.89-2.822a.5.5 0 0 1 .577.811L17.444 55.9l2.271-1.311a.5.5 0 0 1 .637.749l-1.5 1.837.867-.5a.5.5 0 0 1 .67.7l-.3.459a.5.5 0 0 1 .076.9l-1.16.67a.5.5 0 0 1-.67-.7l.081-.125-1.438.83a.5.5 0 0 1-.636-.749l1.5-1.837-4.475 2.577a.489.489 0 0 1-.249.07z" opacity="1" data-original="#335066" class=""></path><path fill="#d1fae5" d="M13.088 37.5a.5.5 0 0 1-.264-.925l19.8-12.306L13.28 35.436a.5.5 0 0 1-.51-.86l9.537-5.809-9.027 5.212a.5.5 0 0 1-.513-.858l18.075-11.185L13.28 32.075a.5.5 0 0 1-.515-.856L34.6 17.563 13.28 29.875a.5.5 0 0 1-.516-.856l22.183-13.936L13.28 27.592a.5.5 0 0 1-.517-.856l19.756-12.458L13.28 25.386a.5.5 0 0 1-.519-.854l18.377-11.719L13.28 23.124a.5.5 0 0 1-.518-.855l13.4-8.478-12.882 7.437a.5.5 0 0 1-.52-.855l12.267-7.841-11.747 6.782a.5.5 0 0 1-.52-.854l9.74-6.244-9.22 5.324a.5.5 0 0 1-.516-.857L15 15.28l-1.722.995a.5.5 0 0 1-.524-.852l7.418-4.843-6.892 3.981a.5.5 0 0 1-.518-.855l.829-.528-.311.18a.5.5 0 0 1-.525-.851l3.513-2.307-2.988 1.727a.5.5 0 0 1-.537-.843l5.647-3.962-5.11 2.95a.5.5 0 0 1-.537-.843l2.938-2.058-2.4 1.386a.5.5 0 0 1-.56-.826l3.566-2.814-3.007 1.736a.5.5 0 0 1-.59-.8l2.325-2.146-1.735 1a.5.5 0 0 1-.679-.69l.953-1.588a.5.5 0 0 1-.487-.874L14.726.6a.5.5 0 0 1 .678.69l-.952 1.588L18.4.6a.5.5 0 0 1 .589.8l-2.324 2.144L21.77.6a.5.5 0 0 1 .559.825l-3.566 2.812L25.067.6a.5.5 0 0 1 .537.842L22.667 3.5 27.69.6a.5.5 0 0 1 .538.842L22.581 5.4 30.9.6a.5.5 0 0 1 .525.851l-3.511 2.3L33.382.6a.5.5 0 0 1 .518.855l-.838.533L35.466.6a.5.5 0 0 1 .523.851L28.575 6.29 38.435.6a.5.5 0 0 1 .515.857L36.7 2.862 40.626.6a.5.5 0 0 1 .52.854l-9.735 6.24L43.7.6a.5.5 0 0 1 .52.854L31.947 9.3 47.014.6a.5.5 0 0 1 .517.855L34.137 9.928 50.3.6a.5.5 0 0 1 .518.854L32.441 13.168 54.216.6a.5.5 0 0 1 .516.856l-19.763 12.46L57.654.818a.5.5 0 0 1 .516.857L35.993 15.607 58.714 2.489a.5.5 0 0 1 .515.857L37.39 17 58.72 4.686a.5.5 0 0 1 .512.858L41.164 16.725 58.72 6.589a.5.5 0 0 1 .509.86l-9.561 5.824 9.052-5.226a.5.5 0 0 1 .513.858l-19.787 12.3L58.72 10.077a.5.5 0 0 1 .512.858l-13.821 8.528 13.309-7.684a.5.5 0 0 1 .518.855L39.844 24.977l18.876-10.9a.5.5 0 0 1 .518.855L43.421 25l15.3-8.833a.5.5 0 0 1 .51.859l-.418.257a.5.5 0 0 1 .426.9l-10.765 6.853L58.72 19.12a.5.5 0 0 1 .517.856l-6.456 4.079 5.939-3.429a.5.5 0 0 1 .529.848l-11.735 7.915 11.206-6.47a.5.5 0 0 1 .519.855l-2.825 1.808 2.306-1.332a.5.5 0 0 1 .538.841l-8.475 5.986L58.72 26.5a.5.5 0 0 1 .531.847l-3.543 2.403 3.012-1.738a.5.5 0 0 1 .556.828l-5.187 4.018 4.631-2.673a.5.5 0 0 1 .563.822l-2.856 2.3 2.293-1.324a.5.5 0 0 1 .588.8l-1.6 1.462 1.011-.583a.5.5 0 0 1 .616.092.5.5 0 0 1 .048.621l-.772 1.139a.5.5 0 0 1 .321.927l-1.659.957a.5.5 0 0 1-.664-.712l.725-1.07L54.24 37.4a.5.5 0 0 1-.653-.136.5.5 0 0 1 .065-.665l1.6-1.464-3.929 2.267a.5.5 0 0 1-.563-.822l2.851-2.3-5.405 3.121a.5.5 0 0 1-.665-.154.5.5 0 0 1 .108-.674l5.191-4.02-8.4 4.85a.5.5 0 0 1-.531-.846l3.541-2.408-5.639 3.256a.5.5 0 0 1-.538-.841l8.474-5.986-11.83 6.83a.5.5 0 0 1-.519-.853l2.828-1.81-4.616 2.664a.5.5 0 0 1-.529-.847l11.735-7.915-15.184 8.773a.5.5 0 0 1-.518-.856l6.448-4.074-8.542 4.932a.5.5 0 0 1-.519-.855l10.77-6.857-13.362 7.714a.5.5 0 0 1-.511-.86l.064-.039-1.56.9a.5.5 0 0 1-.518-.855L39.2 26.5 20.278 37.428a.5.5 0 0 1-.519-.855l19.394-12.342-22.862 13.2a.5.5 0 0 1-.513-.859L29.6 28.043l-16.264 9.39a.494.494 0 0 1-.248.067z" opacity="1" data-original="#e4f0f4" class=""></path><path fill="#fdd1c3" d="M33.006 43.183a.5.5 0 0 1-.309-.894l.036-.028-1.406.811a.5.5 0 0 1-.546-.835l.47-.346a.494.494 0 0 1-.426-.222.5.5 0 0 1 .11-.675l.947-.728a.5.5 0 0 1-.3-.862l2.113-2a.391.391 0 0 1-.055-.078.5.5 0 0 1 .182-.682l1.789-1.034a.5.5 0 0 1 .594.8l-.848.8 1.982-1.144a.5.5 0 0 1 .554.83l-.389.3.562-.324a.5.5 0 0 1 .547.835l-.145.107a.5.5 0 0 1 .442.876l-.629.493a.5.5 0 0 1 .181.927l-5.209 3.007a.493.493 0 0 1-.247.066z" opacity="1" data-original="#fdd1c3"></path><path fill="#059669" d="M23.982 49.129a.5.5 0 0 1-.317-.887l3.876-3.174-4.472 2.582a.5.5 0 0 1-.575-.812l4.154-3.552-4.517 2.608a.5.5 0 0 1-.572-.816l.228-.191-.148.085a.5.5 0 0 1-.6-.788l1.726-1.7-1.877 1.083a.5.5 0 0 1-.569-.818l.311-.259-.241.14a.5.5 0 1 1-.5-.865l5.365-3.1a.5.5 0 0 1 .569.817l-.309.257.118-.068a.5.5 0 0 1 .6.788l-1.726 1.7 1.694-.977a.5.5 0 0 1 .572.815l-.23.193 4.306-2.485a.5.5 0 0 1 .575.813l-4.154 3.55 5.092-2.939a.5.5 0 0 1 .567.819l-3.878 3.177 4.309-2.487a.5.5 0 1 1 .5.865l-9.628 5.559a.5.5 0 0 1-.249.067z" opacity="1" data-original="#db464e" class=""></path><path fill="#059669" d="M3.716 55.47a.5.5 0 0 1-.29-.908l7.518-5.332-9.6 5.541a.5.5 0 0 1-.521-.853l7.222-4.659-6.765 3.907a.5.5 0 0 1-.522-.853l7.522-4.877-7 4.041a.5.5 0 0 1-.525-.851l8.271-5.432-7.746 4.472a.5.5 0 0 1-.525-.851l7.062-4.638L1.28 47.95a.5.5 0 0 1-.528-.85l6.967-4.65-6.439 3.719a.5.5 0 0 1-.526-.85l4-2.646-3.474 2.006a.5.5 0 0 1-.53-.847l3.5-2.366-2.97 1.714a.5.5 0 0 1-.553-.83l5.323-4.057-4.77 2.754a.5.5 0 0 1-.558-.826L3.7 37.886 1.408 39.21a.5.5 0 0 1-.608-.779l2.174-2.26a.5.5 0 0 1-.455-.889l3.006-1.735a.5.5 0 0 1 .61.779l-2.169 2.252 5.373-3.1a.5.5 0 0 1 .561.822l-2.986 2.341 5.418-3.128a.5.5 0 0 1 .553.83L7.563 38.4l8.389-4.842a.5.5 0 0 1 .53.846l-3.5 2.366 5.518-3.185a.5.5 0 0 1 .525.85l-4 2.647 5.527-3.191a.5.5 0 0 1 .528.848l-6.97 4.652 8.231-4.751a.5.5 0 0 1 .524.85L15.8 40.127l7.777-4.489a.5.5 0 0 1 .524.85l-8.271 5.434 8.681-5.012a.5.5 0 0 1 .522.853l-7.517 4.875 7.584-4.379a.5.5 0 0 1 .521.852l-7.235 4.667 1.336-.77a.5.5 0 0 1 .539.841l-7.519 5.332 6.986-4.033a.5.5 0 0 1 .543.837l-5.234 3.808 4.7-2.71a.5.5 0 0 1 .565.821l-4.279 3.469 3.719-2.146a.5.5 0 0 1 .6.793l-2.563 2.466 1.972-1.137a.5.5 0 0 1 .684.68l-.906 1.582.227-.13a.5.5 0 1 1 .5.866L18.418 55.4a.5.5 0 0 1-.684-.68l.9-1.582L14.72 55.4a.5.5 0 0 1-.6-.793l2.564-2.466-5.645 3.259a.5.5 0 0 1-.565-.821l4.278-3.468-7.43 4.289a.5.5 0 0 1-.544-.837l5.237-3.809-8.05 4.646a.489.489 0 0 1-.249.07z" opacity="1" data-original="#db464e" class=""></path><path fill="#efb349" d="M12.652 49.384a.5.5 0 0 1-.383-.821l1.276-1.523-2.189 1.26a.5.5 0 0 1-.6-.794l1.426-1.367-1.9 1.095a.5.5 0 0 1-.592-.8l2.07-1.944-1.2.691a.494.494 0 0 1-.643-.124.5.5 0 0 1 .032-.654l2.163-2.264-1.2.693a.5.5 0 0 1-.651-.731l1.018-1.372-.057.033a.5.5 0 0 1-.5-.866l2.147-1.24a.5.5 0 0 1 .651.731l-1.01 1.38 2.134-1.233a.5.5 0 0 1 .611.779l-2.164 2.264 1.914-1.1a.5.5 0 0 1 .593.8l-2.068 1.935 1.736-1a.5.5 0 0 1 .6.794l-1.428 1.369 1.064-.614a.5.5 0 0 1 .633.754l-1.275 1.52.816-.47a.5.5 0 1 1 .5.865L12.9 49.316a.493.493 0 0 1-.248.068z" opacity="1" data-original="#f7b94b" class=""></path><path fill="#ffc655" d="M12.668 40.482a.5.5 0 0 1-.42-.77l1-1.552-2.288 1.32a.5.5 0 0 1-.612-.776l1.077-1.138-.235.136a.5.5 0 0 1-.638-.748l1.08-1.327a.479.479 0 0 1-.126-.145.5.5 0 0 1 .183-.683l1.24-.715a.5.5 0 0 1 .637.749l-.525.646.862-.5a.5.5 0 0 1 .613.777L13.438 36.9l1.1-.633a.5.5 0 0 1 .671.7l-1 1.552 1.069-.618a.5.5 0 1 1 .5.866l-2.857 1.649a.489.489 0 0 1-.253.066z" opacity="1" data-original="#ffc655" class=""></path><path fill="#a7f3d0" d="M15.973 38.818a.5.5 0 0 1-.35-.858l.362-.353-.826.477a.5.5 0 0 1-.648-.735l1.609-2.119-1.827 1.054a.5.5 0 0 1-.611-.777l.145-.153-.337.194a.5.5 0 1 1-.5-.865l3.346-1.932a.5.5 0 0 1 .612.777l-.146.154.966-.558a.5.5 0 0 1 .649.735l-1.61 2.12 2.14-1.236a.5.5 0 0 1 .6.791l-1.407 1.371a.573.573 0 0 1 .088.112.5.5 0 0 1-.184.682l-1.821 1.052a.488.488 0 0 1-.25.067z" opacity="1" data-original="#c43745" class=""></path><path fill="#a7f3d0" d="M9.094 38.563a.5.5 0 0 1-.3-.9l.353-.269-.63.363a.5.5 0 0 1-.633-.754l1.783-2.128-2.3 1.325a.5.5 0 0 1-.75-.425L6.6 34.538a.5.5 0 0 1-.5-.869l.731-.422a.5.5 0 0 1 .75.426l.02 1.238 4.012-2.311a.5.5 0 0 1 .633.111.5.5 0 0 1 0 .643l-1.784 2.128 5-2.882a.5.5 0 0 1 .552.83l-4.077 3.1a.5.5 0 0 1-.222.6l-2.372 1.365a.489.489 0 0 1-.249.068z" opacity="1" data-original="#c43745" class=""></path><path fill="#335066" d="M7.443 23.5a.5.5 0 0 1-.3-.9l5.181-3.979-7.044 4.063a.5.5 0 0 1-.545-.837l4.692-3.421L5.28 20.82a.5.5 0 0 1-.533-.845l.618-.424-.034.019a.5.5 0 0 1-.559-.826l3.419-2.683L5.89 17.39a.5.5 0 0 1-.582-.807l2.026-1.8a.5.5 0 0 1-.143-.921L10.6 11.89a.5.5 0 0 1 .582.807l-1.539 1.371 4.149-2.4a.5.5 0 0 1 .559.827l-3.42 2.683 5.031-2.9a.5.5 0 0 1 .533.845l-.62.425 1.18-.681a.5.5 0 0 1 .545.837l-4.69 3.42 5.49-3.172a.5.5 0 0 1 .555.829l-5.177 3.979 5.777-3.335a.5.5 0 0 1 .568.819l-4.014 3.312 4.22-2.437a.5.5 0 0 1 .583.806l-2.461 2.2 2.236-1.291a.5.5 0 0 1 .577.81l-.416.356a.5.5 0 0 1 .582.691l-.509 1.12a.506.506 0 0 1 .5.245.5.5 0 0 1-.183.683l-1.147.662a.5.5 0 0 1-.705-.64l.484-1.064-2.963 1.71a.5.5 0 0 1-.578-.81l.346-.3-1.931 1.115a.5.5 0 0 1-.583-.807l2.461-2.2-5.213 3.009a.5.5 0 0 1-.569-.818l4.013-3.312-7.161 4.145a.5.5 0 0 1-.249.071z" opacity="1" data-original="#335066" class=""></path><path fill="#e8bcb1" d="M11.8 35.123a.5.5 0 0 1-.355-.852l1.506-1.512-2.248 1.3a.5.5 0 0 1-.6-.792l.618-.6-.444.256a.5.5 0 0 1-.738-.541l.312-1.407a.5.5 0 0 1-.074-.9l.5-.291a.5.5 0 0 1 .738.542l-.258 1.164 2.984-1.723a.5.5 0 0 1 .6.792l-.617.6 1.991-1.15a.5.5 0 0 1 .6.786l-1.507 1.513.895-.517a.5.5 0 1 1 .5.865l-4.161 2.4a.488.488 0 0 1-.242.067z" opacity="1" data-original="#e8bcb1" class=""></path><path fill="#fdd1c3" d="M11.75 31.337a.5.5 0 0 1-.3-.9l1.124-.862-2.028 1.171a.5.5 0 0 1-.546-.834l3.1-2.266-3.841 2.218a.5.5 0 0 1-.536-.843l1.635-1.139-1.9 1.1a.5.5 0 0 1-.542-.838l2.756-1.989-2.892 1.666a.5.5 0 0 1-.535-.843l1.221-.849-1.041.6a.5.5 0 0 1-.551-.832l3.293-2.487-3.356 1.938a.5.5 0 0 1-.558-.827l.653-.511-1.17.676a.5.5 0 0 1-.583-.807l1.628-1.452-1.489.86a.5.5 0 0 1-.6-.789l2.27-2.237a.514.514 0 0 1-.074-.1.5.5 0 0 1 .183-.684l1.707-.985a.5.5 0 0 1 .6.789l-1.2 1.183 2.312-1.334a.5.5 0 0 1 .583.806L9.444 21.39l3.118-1.8a.5.5 0 0 1 .559.827l-.653.511 4.213-2.428a.5.5 0 0 1 .551.832l-3.294 2.488 4.368-2.522a.5.5 0 0 1 .535.844l-1.222.849 1.089-.629a.5.5 0 0 1 .542.839l-2.75 1.983 3.581-2.068a.5.5 0 0 1 .536.843L18.974 23.1l1.69-.976a.5.5 0 0 1 .545.836l-3.1 2.264.594-.343a.5.5 0 0 1 .554.83l-1.123.861.294-.17a.5.5 0 0 1 .59.8l-1.542 1.426a.5.5 0 0 1 .1.91l-2.935 1.694a.5.5 0 0 1-.59-.8l1-.927L12 31.27a.5.5 0 0 1-.25.067z" opacity="1" data-original="#fdd1c3"></path><g fill="#262626"><path d="M59.724 11.325C59.53 5.155 62.012-.888 53 .656c-12.523.031-25.051-.05-37.571 0-5.267.372-2.512 7.4-3.148 10.883-5.76.374-8.838 6.134-8.01 11.515a2.251 2.251 0 0 0 2.016 2.233 6.15 6.15 0 0 0 3 5.092c-.007.8 0 1.6 0 2.4-9.4.9-9.456 6.931-9 14.809.462 2.338-1.115 6.267 1 7.742C.592 58.315 3 60.371 5.839 59.157c17.753.638 14.787 2.958 14.885-14.251 1.268 3.322 3.809 6.264 7.206 3.236 1.931-1.887 5.279-2.944 6.425-5.4 1.808-1.63 6.046-2.04 4.835-5.4 29.318.58 18.61 1.435 20.534-26.017zM9.307 13.519c5.146-3.081 11.506 1.614 10.988 7.346a2.628 2.628 0 0 0-.581-.152c-.7-4.1-4.68-.788-7.075-1.09-2.111-.989-5.6-1.927-6.326 1.221a3.788 3.788 0 0 0-.6.24 7.933 7.933 0 0 1 3.594-7.565zM7.724 24.806C6 24.781 4.771 22.062 6.7 21.325c.307-.017 1-.118 1.029-.519.166-3.712 4.471 1.518 8.5-1.436 1.11-.539 2.045.833 2.052 1.824.772.27 1.721.458 1.925 1.47.367 2.365-1.033 1.531-1.926 2.53.004 7.435-10.645 6.722-10.556-.388zm8.489 13.111a.592.592 0 0 0-.354-.178c-.665-.839-.773-2.108-1.758-2.755a4.661 4.661 0 0 0 2.13-1.423c.873.213 1.795.413 2.707.662-.538 1.314-1.325 3.215-2.725 3.694zm-3.071 10.592c-3.816-1.314-1.694-4.959-1.51-7.959h2.7c.016 2.915 2.499 6.665-1.19 7.959zM9.459 33.5a4.057 4.057 0 0 0 2.5 1.712 5.434 5.434 0 0 0-1.559 2.515.815.815 0 0 0-.442.18c-1.446-.672-2.324-2.417-2.874-3.886q1.189-.268 2.375-.521zm2.147 4.415c.521-.691.569-1.671 1.255-2.271 1.041.671.872 2.232 1.919 2.838l-.323.971h-2.851l-.4-1.207a2.155 2.155 0 0 0 .4-.334zm1.537-6.6a7.636 7.636 0 0 0 2.133-.466c1.041 4.967-5.159 4.786-4.552.184a6.615 6.615 0 0 0 2.419.276zM5.216 58.573a.562.562 0 0 1 .061 0zm-1.141-.013a1.768 1.768 0 0 1-1.349-1.647v-1.459q1.263.054 2.54.039c-.156 1 .175 2.155-.142 3.08-.351-.007-.7.016-1.049-.013zm3.1-.014c-.888-.62-.279-2.127-.449-3.078 1.859-.056 3.695-.054 5.55-.051v3.166c-1.676-.095-3.447.175-5.101-.037zm6.549.037v-3.166h5.562c.92 4.87-2.456 2.739-5.562 3.166zm18.811-14.959c-7.33 5.545-7.447 7.595-11.81-1.819-3.021-1.429-.815 10.663-1.449 12.778H6.73c.728-17.3-2.161-17.249-1.46-.01-4.324.672-3.6-1.448-3.545-4.84C2.31 44.686-.48 36.709 5.651 34.4c.739 1.755 1.911 4.367 4.136 4.333 1.525 3.757-3.059 9.07 2.572 10.66 7.458-.969 2.41-6.349 3.8-10.683 1.976-.265 3.261-2.321 4.008-4.105 6.081.713 3.881 12.872 10.593 5.978a.212.212 0 0 0 .139.106c.55.775 2.576 1.947 1.636 2.935zm-1.454-3.932c-5.506 2.867-2.568 3.608-5.5-2.393h7.592a9.612 9.612 0 0 1-2.092 2.393zm5.544.509a10.28 10.28 0 0 0-2.809 1.538c-.579-.535-.991-1.02-1.517-1.563 1.242-.9 1.864-2.35 2.862-3.414 2.257-1.203 4.009 2.689 1.464 3.438zM58.276 8.574c-1.867 32.079 8.448 28.119-19.482 28.081a3.246 3.246 0 0 0-2.065-1.145c.671-10.872-2.109-10.51-1.458.063a2.865 2.865 0 0 0-1.739 1.127h-8.316c-1.877-2.688-5.354-3.2-8.491-4.02.024-.853 0-1.71 0-2.563a6.441 6.441 0 0 0 2.975-4.966c5.584-3.281.17-14.109-5.977-13.645.564-8.545-3.154-11.071 7.729-10.161 11.729.011 23.481-.016 35.2 0 2.932.862 1.158 4.962 1.624 7.229z" fill="#262626" opacity="1" data-original="#262626" class=""></path><path d="M46.722 8.327c.656.062 5 .07 3.582-.655h-24c-4.222 1.428 18.548.335 20.418.655zM50.263 13.52h-24c-.634 0-1.5.96-.526.96h24c.634 0 1.503-.96.526-.96zM50.263 19.04h-24c-.634 0-1.5.96-.526.96h24c.634 0 1.503-.96.526-.96z" fill="#262626" opacity="1" data-original="#262626" class=""></path></g></g></svg>